<mxfile host="app.diagrams.net" modified="2024-04-22T14:46:14.218Z" agent="Mozilla/5.0 (Windows NT 10.0; Win64; x64; rv:125.0) Gecko/20100101 Firefox/125.0" etag="VPp3MIgCOX6SCnvrglke" version="24.2.7" type="device" pages="2">
  <diagram name="Page-1" id="2YBvvXClWsGukQMizWep">
    <mxGraphModel dx="1195" dy="652" grid="1" gridSize="10" guides="1" tooltips="1" connect="1" arrows="1" fold="1" page="1" pageScale="1" pageWidth="850" pageHeight="1100" math="0" shadow="0">
      <root>
        <mxCell id="0" />
        <mxCell id="1" parent="0" />
        <mxCell id="Ibsq3sQQ3ZI4pIQ2WGWS-1" value="MS" style="shape=umlLifeline;perimeter=lifelinePerimeter;whiteSpace=wrap;html=1;container=0;dropTarget=0;collapsible=0;recursiveResize=0;outlineConnect=0;portConstraint=eastwest;newEdgeStyle={&quot;edgeStyle&quot;:&quot;elbowEdgeStyle&quot;,&quot;elbow&quot;:&quot;vertical&quot;,&quot;curved&quot;:0,&quot;rounded&quot;:0};" vertex="1" parent="1">
          <mxGeometry x="40" y="40" width="100" height="510" as="geometry" />
        </mxCell>
        <mxCell id="bLykYddRoZcESHF39pVB-99" value="GET / (MMSA4)" style="html=1;verticalAlign=bottom;endArrow=block;edgeStyle=elbowEdgeStyle;elbow=horizontal;curved=0;rounded=0;" edge="1" parent="Ibsq3sQQ3ZI4pIQ2WGWS-1">
          <mxGeometry x="0.0028" relative="1" as="geometry">
            <mxPoint x="55" y="446" as="sourcePoint" />
            <Array as="points">
              <mxPoint x="140" y="446" />
            </Array>
            <mxPoint x="225" y="446" as="targetPoint" />
            <mxPoint as="offset" />
          </mxGeometry>
        </mxCell>
        <mxCell id="bLykYddRoZcESHF39pVB-100" value="" style="html=1;points=[];perimeter=orthogonalPerimeter;outlineConnect=0;targetShapes=umlLifeline;portConstraint=eastwest;newEdgeStyle={&quot;edgeStyle&quot;:&quot;elbowEdgeStyle&quot;,&quot;elbow&quot;:&quot;vertical&quot;,&quot;curved&quot;:0,&quot;rounded&quot;:0};" vertex="1" parent="Ibsq3sQQ3ZI4pIQ2WGWS-1">
          <mxGeometry x="225" y="430" width="10" height="50" as="geometry" />
        </mxCell>
        <mxCell id="bLykYddRoZcESHF39pVB-101" value="" style="html=1;points=[];perimeter=orthogonalPerimeter;outlineConnect=0;targetShapes=umlLifeline;portConstraint=eastwest;newEdgeStyle={&quot;edgeStyle&quot;:&quot;elbowEdgeStyle&quot;,&quot;elbow&quot;:&quot;vertical&quot;,&quot;curved&quot;:0,&quot;rounded&quot;:0};" vertex="1" parent="Ibsq3sQQ3ZI4pIQ2WGWS-1">
          <mxGeometry x="45" y="430" width="10" height="50" as="geometry" />
        </mxCell>
        <mxCell id="bLykYddRoZcESHF39pVB-102" value="200 OK" style="html=1;verticalAlign=bottom;endArrow=open;dashed=1;endSize=8;edgeStyle=elbowEdgeStyle;elbow=vertical;curved=0;rounded=0;" edge="1" parent="Ibsq3sQQ3ZI4pIQ2WGWS-1" source="bLykYddRoZcESHF39pVB-100">
          <mxGeometry relative="1" as="geometry">
            <mxPoint x="55" y="469.76" as="targetPoint" />
            <Array as="points">
              <mxPoint x="150" y="469.76" />
            </Array>
            <mxPoint x="225" y="469.76" as="sourcePoint" />
          </mxGeometry>
        </mxCell>
        <mxCell id="aM9ryv3xv72pqoxQDRHE-8" value="409 Conflict" style="html=1;verticalAlign=bottom;endArrow=open;dashed=1;endSize=8;edgeStyle=elbowEdgeStyle;elbow=vertical;curved=0;rounded=0;" parent="Ibsq3sQQ3ZI4pIQ2WGWS-1" edge="1">
          <mxGeometry relative="1" as="geometry">
            <mxPoint x="55" y="90" as="targetPoint" />
            <Array as="points">
              <mxPoint x="150" y="90" />
            </Array>
            <mxPoint x="225" y="90" as="sourcePoint" />
          </mxGeometry>
        </mxCell>
        <mxCell id="bLykYddRoZcESHF39pVB-12" value="" style="html=1;points=[];perimeter=orthogonalPerimeter;outlineConnect=0;targetShapes=umlLifeline;portConstraint=eastwest;newEdgeStyle={&quot;edgeStyle&quot;:&quot;elbowEdgeStyle&quot;,&quot;elbow&quot;:&quot;vertical&quot;,&quot;curved&quot;:0,&quot;rounded&quot;:0};" vertex="1" parent="Ibsq3sQQ3ZI4pIQ2WGWS-1">
          <mxGeometry x="45" y="60" width="10" height="60" as="geometry" />
        </mxCell>
        <mxCell id="bLykYddRoZcESHF39pVB-11" value="" style="html=1;points=[];perimeter=orthogonalPerimeter;outlineConnect=0;targetShapes=umlLifeline;portConstraint=eastwest;newEdgeStyle={&quot;edgeStyle&quot;:&quot;elbowEdgeStyle&quot;,&quot;elbow&quot;:&quot;vertical&quot;,&quot;curved&quot;:0,&quot;rounded&quot;:0};" vertex="1" parent="Ibsq3sQQ3ZI4pIQ2WGWS-1">
          <mxGeometry x="225" y="60" width="10" height="60" as="geometry" />
        </mxCell>
        <mxCell id="bLykYddRoZcESHF39pVB-2" value="POST /register (MMSA0)" style="html=1;verticalAlign=bottom;endArrow=block;edgeStyle=elbowEdgeStyle;elbow=horizontal;curved=0;rounded=0;" edge="1" parent="Ibsq3sQQ3ZI4pIQ2WGWS-1">
          <mxGeometry relative="1" as="geometry">
            <mxPoint x="55" y="70" as="sourcePoint" />
            <Array as="points">
              <mxPoint x="140" y="70" />
            </Array>
            <mxPoint x="225" y="70" as="targetPoint" />
          </mxGeometry>
        </mxCell>
        <mxCell id="bLykYddRoZcESHF39pVB-4" value="&lt;div&gt;201 Created&lt;br&gt;&lt;/div&gt;" style="html=1;verticalAlign=bottom;endArrow=open;dashed=1;endSize=8;edgeStyle=elbowEdgeStyle;elbow=vertical;curved=0;rounded=0;" edge="1" parent="Ibsq3sQQ3ZI4pIQ2WGWS-1">
          <mxGeometry relative="1" as="geometry">
            <mxPoint x="55" y="110" as="targetPoint" />
            <Array as="points">
              <mxPoint x="150" y="110" />
            </Array>
            <mxPoint x="225" y="110" as="sourcePoint" />
          </mxGeometry>
        </mxCell>
        <mxCell id="Ibsq3sQQ3ZI4pIQ2WGWS-5" value="MMS" style="shape=umlLifeline;perimeter=lifelinePerimeter;whiteSpace=wrap;html=1;container=0;dropTarget=0;collapsible=0;recursiveResize=0;outlineConnect=0;portConstraint=eastwest;newEdgeStyle={&quot;edgeStyle&quot;:&quot;elbowEdgeStyle&quot;,&quot;elbow&quot;:&quot;vertical&quot;,&quot;curved&quot;:0,&quot;rounded&quot;:0};" vertex="1" parent="1">
          <mxGeometry x="220" y="40" width="100" height="510" as="geometry" />
        </mxCell>
        <mxCell id="bLykYddRoZcESHF39pVB-22" value="POST /delete (MMSA3)" style="html=1;verticalAlign=bottom;endArrow=block;edgeStyle=elbowEdgeStyle;elbow=horizontal;curved=0;rounded=0;" edge="1" parent="Ibsq3sQQ3ZI4pIQ2WGWS-5">
          <mxGeometry x="0.0028" relative="1" as="geometry">
            <mxPoint x="-125" y="326" as="sourcePoint" />
            <Array as="points">
              <mxPoint x="-40" y="326" />
            </Array>
            <mxPoint x="45" y="326" as="targetPoint" />
            <mxPoint as="offset" />
          </mxGeometry>
        </mxCell>
        <mxCell id="bLykYddRoZcESHF39pVB-23" value="" style="html=1;points=[];perimeter=orthogonalPerimeter;outlineConnect=0;targetShapes=umlLifeline;portConstraint=eastwest;newEdgeStyle={&quot;edgeStyle&quot;:&quot;elbowEdgeStyle&quot;,&quot;elbow&quot;:&quot;vertical&quot;,&quot;curved&quot;:0,&quot;rounded&quot;:0};" vertex="1" parent="Ibsq3sQQ3ZI4pIQ2WGWS-5">
          <mxGeometry x="45" y="310" width="10" height="80" as="geometry" />
        </mxCell>
        <mxCell id="bLykYddRoZcESHF39pVB-24" value="" style="html=1;points=[];perimeter=orthogonalPerimeter;outlineConnect=0;targetShapes=umlLifeline;portConstraint=eastwest;newEdgeStyle={&quot;edgeStyle&quot;:&quot;elbowEdgeStyle&quot;,&quot;elbow&quot;:&quot;vertical&quot;,&quot;curved&quot;:0,&quot;rounded&quot;:0};" vertex="1" parent="Ibsq3sQQ3ZI4pIQ2WGWS-5">
          <mxGeometry x="-135" y="310" width="10" height="80" as="geometry" />
        </mxCell>
        <mxCell id="bLykYddRoZcESHF39pVB-31" value="200 OK Set-Cookie (expired)" style="html=1;verticalAlign=bottom;endArrow=open;dashed=1;endSize=8;edgeStyle=elbowEdgeStyle;elbow=vertical;curved=0;rounded=0;" edge="1" parent="Ibsq3sQQ3ZI4pIQ2WGWS-5">
          <mxGeometry relative="1" as="geometry">
            <mxPoint x="-125" y="370" as="targetPoint" />
            <Array as="points">
              <mxPoint x="-30" y="370" />
            </Array>
            <mxPoint x="45" y="370" as="sourcePoint" />
          </mxGeometry>
        </mxCell>
        <mxCell id="bLykYddRoZcESHF39pVB-32" value="401 Unauthorized" style="html=1;verticalAlign=bottom;endArrow=open;dashed=1;endSize=8;edgeStyle=elbowEdgeStyle;elbow=vertical;curved=0;rounded=0;" edge="1" parent="Ibsq3sQQ3ZI4pIQ2WGWS-5">
          <mxGeometry relative="1" as="geometry">
            <mxPoint x="-125" y="349.76" as="targetPoint" />
            <Array as="points">
              <mxPoint x="-30" y="349.76" />
            </Array>
            <mxPoint x="45" y="349.76" as="sourcePoint" />
          </mxGeometry>
        </mxCell>
        <mxCell id="aM9ryv3xv72pqoxQDRHE-7" value="POST /user/register" style="html=1;verticalAlign=bottom;endArrow=block;edgeStyle=elbowEdgeStyle;elbow=vertical;curved=0;rounded=0;" parent="1" target="aM9ryv3xv72pqoxQDRHE-6" edge="1">
          <mxGeometry relative="1" as="geometry">
            <mxPoint x="95" y="120" as="sourcePoint" />
            <Array as="points">
              <mxPoint x="180" y="120" />
            </Array>
          </mxGeometry>
        </mxCell>
        <mxCell id="bLykYddRoZcESHF39pVB-36" value="MMS" style="shape=umlLifeline;perimeter=lifelinePerimeter;whiteSpace=wrap;html=1;container=0;dropTarget=0;collapsible=0;recursiveResize=0;outlineConnect=0;portConstraint=eastwest;newEdgeStyle={&quot;edgeStyle&quot;:&quot;elbowEdgeStyle&quot;,&quot;elbow&quot;:&quot;vertical&quot;,&quot;curved&quot;:0,&quot;rounded&quot;:0};" vertex="1" parent="1">
          <mxGeometry x="540" y="40" width="100" height="510" as="geometry" />
        </mxCell>
        <mxCell id="bLykYddRoZcESHF39pVB-33" value="MS" style="shape=umlLifeline;perimeter=lifelinePerimeter;whiteSpace=wrap;html=1;container=0;dropTarget=0;collapsible=0;recursiveResize=0;outlineConnect=0;portConstraint=eastwest;newEdgeStyle={&quot;edgeStyle&quot;:&quot;elbowEdgeStyle&quot;,&quot;elbow&quot;:&quot;vertical&quot;,&quot;curved&quot;:0,&quot;rounded&quot;:0};" vertex="1" parent="1">
          <mxGeometry x="360" y="40" width="100" height="510" as="geometry" />
        </mxCell>
        <mxCell id="bLykYddRoZcESHF39pVB-55" value="/user" style="swimlane;whiteSpace=wrap;html=1;" vertex="1" parent="1">
          <mxGeometry x="30" y="10" width="300" height="540" as="geometry" />
        </mxCell>
        <mxCell id="bLykYddRoZcESHF39pVB-3" value="POST /logout (MMSA2)" style="html=1;verticalAlign=bottom;endArrow=block;edgeStyle=elbowEdgeStyle;elbow=horizontal;curved=0;rounded=0;" edge="1" parent="bLykYddRoZcESHF39pVB-55">
          <mxGeometry x="0.0028" relative="1" as="geometry">
            <mxPoint x="65" y="276" as="sourcePoint" />
            <Array as="points">
              <mxPoint x="150" y="276" />
            </Array>
            <mxPoint x="235" y="276" as="targetPoint" />
            <mxPoint as="offset" />
          </mxGeometry>
        </mxCell>
        <mxCell id="bLykYddRoZcESHF39pVB-15" value="" style="html=1;points=[];perimeter=orthogonalPerimeter;outlineConnect=0;targetShapes=umlLifeline;portConstraint=eastwest;newEdgeStyle={&quot;edgeStyle&quot;:&quot;elbowEdgeStyle&quot;,&quot;elbow&quot;:&quot;vertical&quot;,&quot;curved&quot;:0,&quot;rounded&quot;:0};" vertex="1" parent="bLykYddRoZcESHF39pVB-55">
          <mxGeometry x="235" y="260" width="10" height="50" as="geometry" />
        </mxCell>
        <mxCell id="bLykYddRoZcESHF39pVB-14" value="" style="html=1;points=[];perimeter=orthogonalPerimeter;outlineConnect=0;targetShapes=umlLifeline;portConstraint=eastwest;newEdgeStyle={&quot;edgeStyle&quot;:&quot;elbowEdgeStyle&quot;,&quot;elbow&quot;:&quot;vertical&quot;,&quot;curved&quot;:0,&quot;rounded&quot;:0};" vertex="1" parent="bLykYddRoZcESHF39pVB-55">
          <mxGeometry x="55" y="260" width="10" height="50" as="geometry" />
        </mxCell>
        <mxCell id="bLykYddRoZcESHF39pVB-26" value="200 OK Set-Cookie (expired)" style="html=1;verticalAlign=bottom;endArrow=open;dashed=1;endSize=8;edgeStyle=elbowEdgeStyle;elbow=vertical;curved=0;rounded=0;" edge="1" parent="bLykYddRoZcESHF39pVB-55">
          <mxGeometry relative="1" as="geometry">
            <mxPoint x="65" y="299.76" as="targetPoint" />
            <Array as="points">
              <mxPoint x="160" y="299.76" />
            </Array>
            <mxPoint x="235" y="299.76" as="sourcePoint" />
          </mxGeometry>
        </mxCell>
        <mxCell id="bLykYddRoZcESHF39pVB-17" value="With auth Cookie (else 401)" style="swimlane;horizontal=0;whiteSpace=wrap;html=1;" vertex="1" parent="bLykYddRoZcESHF39pVB-55">
          <mxGeometry x="10" y="250" width="280" height="280" as="geometry" />
        </mxCell>
        <mxCell id="bLykYddRoZcESHF39pVB-28" value="&lt;font style=&quot;font-size: 10px;&quot;&gt;Payload must contain password&lt;/font&gt;" style="text;html=1;align=center;verticalAlign=middle;whiteSpace=wrap;rounded=0;fontSize=10;rotation=-90;" vertex="1" parent="bLykYddRoZcESHF39pVB-17">
          <mxGeometry x="210" y="110" width="100" height="40" as="geometry" />
        </mxCell>
        <mxCell id="bLykYddRoZcESHF39pVB-13" value="" style="html=1;points=[];perimeter=orthogonalPerimeter;outlineConnect=0;targetShapes=umlLifeline;portConstraint=eastwest;newEdgeStyle={&quot;edgeStyle&quot;:&quot;elbowEdgeStyle&quot;,&quot;elbow&quot;:&quot;vertical&quot;,&quot;curved&quot;:0,&quot;rounded&quot;:0};" vertex="1" parent="bLykYddRoZcESHF39pVB-55">
          <mxGeometry x="55" y="170" width="10" height="60" as="geometry" />
        </mxCell>
        <mxCell id="bLykYddRoZcESHF39pVB-16" value="" style="html=1;points=[];perimeter=orthogonalPerimeter;outlineConnect=0;targetShapes=umlLifeline;portConstraint=eastwest;newEdgeStyle={&quot;edgeStyle&quot;:&quot;elbowEdgeStyle&quot;,&quot;elbow&quot;:&quot;vertical&quot;,&quot;curved&quot;:0,&quot;rounded&quot;:0};" vertex="1" parent="bLykYddRoZcESHF39pVB-55">
          <mxGeometry x="235" y="170" width="10" height="60" as="geometry" />
        </mxCell>
        <mxCell id="bLykYddRoZcESHF39pVB-5" value="401 Unauthorized" style="html=1;verticalAlign=bottom;endArrow=open;dashed=1;endSize=8;edgeStyle=elbowEdgeStyle;elbow=vertical;curved=0;rounded=0;" edge="1" parent="bLykYddRoZcESHF39pVB-55">
          <mxGeometry relative="1" as="geometry">
            <mxPoint x="65" y="203" as="targetPoint" />
            <Array as="points">
              <mxPoint x="160" y="203" />
            </Array>
            <mxPoint x="235" y="203" as="sourcePoint" />
          </mxGeometry>
        </mxCell>
        <mxCell id="bLykYddRoZcESHF39pVB-6" value="POST /login (MMSA1)" style="html=1;verticalAlign=bottom;endArrow=block;edgeStyle=elbowEdgeStyle;elbow=horizontal;curved=0;rounded=0;" edge="1" parent="bLykYddRoZcESHF39pVB-55">
          <mxGeometry relative="1" as="geometry">
            <mxPoint x="65" y="183" as="sourcePoint" />
            <Array as="points">
              <mxPoint x="150" y="183" />
            </Array>
            <mxPoint x="235" y="183" as="targetPoint" />
          </mxGeometry>
        </mxCell>
        <mxCell id="bLykYddRoZcESHF39pVB-7" value="200 OK Set-Cookie" style="html=1;verticalAlign=bottom;endArrow=open;dashed=1;endSize=8;edgeStyle=elbowEdgeStyle;elbow=vertical;curved=0;rounded=0;" edge="1" parent="bLykYddRoZcESHF39pVB-55">
          <mxGeometry relative="1" as="geometry">
            <mxPoint x="65" y="223" as="targetPoint" />
            <Array as="points">
              <mxPoint x="160" y="223" />
            </Array>
            <mxPoint x="235" y="223" as="sourcePoint" />
          </mxGeometry>
        </mxCell>
        <mxCell id="bLykYddRoZcESHF39pVB-61" value="/matchmaking" style="swimlane;whiteSpace=wrap;html=1;" vertex="1" parent="1">
          <mxGeometry x="350" y="10" width="300" height="540" as="geometry" />
        </mxCell>
        <mxCell id="bLykYddRoZcESHF39pVB-69" value="With auth Cookie (else 401)" style="swimlane;horizontal=0;whiteSpace=wrap;html=1;" vertex="1" parent="bLykYddRoZcESHF39pVB-61">
          <mxGeometry x="10" y="80" width="280" height="190" as="geometry" />
        </mxCell>
        <mxCell id="bLykYddRoZcESHF39pVB-74" value="" style="html=1;points=[];perimeter=orthogonalPerimeter;outlineConnect=0;targetShapes=umlLifeline;portConstraint=eastwest;newEdgeStyle={&quot;edgeStyle&quot;:&quot;elbowEdgeStyle&quot;,&quot;elbow&quot;:&quot;vertical&quot;,&quot;curved&quot;:0,&quot;rounded&quot;:0};" vertex="1" parent="bLykYddRoZcESHF39pVB-69">
          <mxGeometry x="45" y="10" width="10" height="60" as="geometry" />
        </mxCell>
        <mxCell id="bLykYddRoZcESHF39pVB-75" value="" style="html=1;points=[];perimeter=orthogonalPerimeter;outlineConnect=0;targetShapes=umlLifeline;portConstraint=eastwest;newEdgeStyle={&quot;edgeStyle&quot;:&quot;elbowEdgeStyle&quot;,&quot;elbow&quot;:&quot;vertical&quot;,&quot;curved&quot;:0,&quot;rounded&quot;:0};" vertex="1" parent="bLykYddRoZcESHF39pVB-69">
          <mxGeometry x="225" y="10" width="10" height="60" as="geometry" />
        </mxCell>
        <mxCell id="bLykYddRoZcESHF39pVB-76" value="POST /enqueue (MMSB0)" style="html=1;verticalAlign=bottom;endArrow=block;edgeStyle=elbowEdgeStyle;elbow=horizontal;curved=0;rounded=0;" edge="1" parent="bLykYddRoZcESHF39pVB-69">
          <mxGeometry relative="1" as="geometry">
            <mxPoint x="55" y="20" as="sourcePoint" />
            <Array as="points">
              <mxPoint x="140" y="20" />
            </Array>
            <mxPoint x="225" y="20" as="targetPoint" />
          </mxGeometry>
        </mxCell>
        <mxCell id="bLykYddRoZcESHF39pVB-77" value="409 Conflict" style="html=1;verticalAlign=bottom;endArrow=open;dashed=1;endSize=8;edgeStyle=elbowEdgeStyle;elbow=vertical;curved=0;rounded=0;" edge="1" parent="bLykYddRoZcESHF39pVB-69">
          <mxGeometry relative="1" as="geometry">
            <mxPoint x="55" y="39.23999999999996" as="targetPoint" />
            <Array as="points">
              <mxPoint x="150" y="39.23999999999996" />
            </Array>
            <mxPoint x="225" y="39.23999999999996" as="sourcePoint" />
          </mxGeometry>
        </mxCell>
        <mxCell id="bLykYddRoZcESHF39pVB-78" value="&lt;div&gt;200 OK&lt;br&gt;&lt;/div&gt;" style="html=1;verticalAlign=bottom;endArrow=open;dashed=1;endSize=8;edgeStyle=elbowEdgeStyle;elbow=vertical;curved=0;rounded=0;" edge="1" parent="bLykYddRoZcESHF39pVB-69">
          <mxGeometry relative="1" as="geometry">
            <mxPoint x="55" y="60.07" as="targetPoint" />
            <Array as="points">
              <mxPoint x="150" y="60.07" />
            </Array>
            <mxPoint x="225" y="60.07" as="sourcePoint" />
          </mxGeometry>
        </mxCell>
        <mxCell id="bLykYddRoZcESHF39pVB-79" value="&lt;div&gt;&lt;font style=&quot;font-size: 10px;&quot;&gt;Payload may containmatch data&lt;br&gt;&lt;/font&gt;&lt;/div&gt;" style="text;html=1;align=center;verticalAlign=middle;whiteSpace=wrap;rounded=0;fontSize=10;rotation=-90;" vertex="1" parent="bLykYddRoZcESHF39pVB-69">
          <mxGeometry x="210" y="30" width="100" height="40" as="geometry" />
        </mxCell>
        <mxCell id="bLykYddRoZcESHF39pVB-80" value="" style="html=1;points=[];perimeter=orthogonalPerimeter;outlineConnect=0;targetShapes=umlLifeline;portConstraint=eastwest;newEdgeStyle={&quot;edgeStyle&quot;:&quot;elbowEdgeStyle&quot;,&quot;elbow&quot;:&quot;vertical&quot;,&quot;curved&quot;:0,&quot;rounded&quot;:0};" vertex="1" parent="bLykYddRoZcESHF39pVB-69">
          <mxGeometry x="45" y="85" width="10" height="40" as="geometry" />
        </mxCell>
        <mxCell id="bLykYddRoZcESHF39pVB-81" value="GET /enqueue (MMSB1)" style="html=1;verticalAlign=bottom;endArrow=block;edgeStyle=elbowEdgeStyle;elbow=horizontal;curved=0;rounded=0;" edge="1" parent="bLykYddRoZcESHF39pVB-69" target="bLykYddRoZcESHF39pVB-20">
          <mxGeometry relative="1" as="geometry">
            <mxPoint x="55" y="95" as="sourcePoint" />
            <Array as="points">
              <mxPoint x="140" y="95" />
            </Array>
            <mxPoint x="225" y="95" as="targetPoint" />
          </mxGeometry>
        </mxCell>
        <mxCell id="bLykYddRoZcESHF39pVB-94" value="&lt;div&gt;200 OK&lt;br&gt;&lt;/div&gt;" style="html=1;verticalAlign=bottom;endArrow=open;dashed=1;endSize=8;edgeStyle=elbowEdgeStyle;elbow=vertical;curved=0;rounded=0;" edge="1" parent="bLykYddRoZcESHF39pVB-69" source="bLykYddRoZcESHF39pVB-20">
          <mxGeometry relative="1" as="geometry">
            <mxPoint x="55" y="114.71000000000001" as="targetPoint" />
            <Array as="points" />
            <mxPoint x="205" y="115" as="sourcePoint" />
          </mxGeometry>
        </mxCell>
        <mxCell id="bLykYddRoZcESHF39pVB-20" value="" style="html=1;points=[];perimeter=orthogonalPerimeter;outlineConnect=0;targetShapes=umlLifeline;portConstraint=eastwest;newEdgeStyle={&quot;edgeStyle&quot;:&quot;elbowEdgeStyle&quot;,&quot;elbow&quot;:&quot;vertical&quot;,&quot;curved&quot;:0,&quot;rounded&quot;:0};" vertex="1" parent="bLykYddRoZcESHF39pVB-69">
          <mxGeometry x="225" y="85" width="10" height="40" as="geometry" />
        </mxCell>
        <mxCell id="bLykYddRoZcESHF39pVB-95" value="" style="html=1;points=[];perimeter=orthogonalPerimeter;outlineConnect=0;targetShapes=umlLifeline;portConstraint=eastwest;newEdgeStyle={&quot;edgeStyle&quot;:&quot;elbowEdgeStyle&quot;,&quot;elbow&quot;:&quot;vertical&quot;,&quot;curved&quot;:0,&quot;rounded&quot;:0};" vertex="1" parent="bLykYddRoZcESHF39pVB-69">
          <mxGeometry x="45" y="140" width="10" height="40" as="geometry" />
        </mxCell>
        <mxCell id="bLykYddRoZcESHF39pVB-96" value="DELETE /enqueue (MMSB2)" style="html=1;verticalAlign=bottom;endArrow=block;edgeStyle=elbowEdgeStyle;elbow=horizontal;curved=0;rounded=0;" edge="1" parent="bLykYddRoZcESHF39pVB-69" target="bLykYddRoZcESHF39pVB-98">
          <mxGeometry relative="1" as="geometry">
            <mxPoint x="55" y="150" as="sourcePoint" />
            <Array as="points">
              <mxPoint x="140" y="150" />
            </Array>
            <mxPoint x="225" y="150" as="targetPoint" />
          </mxGeometry>
        </mxCell>
        <mxCell id="bLykYddRoZcESHF39pVB-97" value="&lt;div&gt;200 OK&lt;br&gt;&lt;/div&gt;" style="html=1;verticalAlign=bottom;endArrow=open;dashed=1;endSize=8;edgeStyle=elbowEdgeStyle;elbow=vertical;curved=0;rounded=0;" edge="1" parent="bLykYddRoZcESHF39pVB-69" source="bLykYddRoZcESHF39pVB-98">
          <mxGeometry relative="1" as="geometry">
            <mxPoint x="55" y="169.71000000000004" as="targetPoint" />
            <Array as="points" />
            <mxPoint x="205" y="170" as="sourcePoint" />
          </mxGeometry>
        </mxCell>
        <mxCell id="bLykYddRoZcESHF39pVB-98" value="" style="html=1;points=[];perimeter=orthogonalPerimeter;outlineConnect=0;targetShapes=umlLifeline;portConstraint=eastwest;newEdgeStyle={&quot;edgeStyle&quot;:&quot;elbowEdgeStyle&quot;,&quot;elbow&quot;:&quot;vertical&quot;,&quot;curved&quot;:0,&quot;rounded&quot;:0};" vertex="1" parent="bLykYddRoZcESHF39pVB-69">
          <mxGeometry x="225" y="140" width="10" height="40" as="geometry" />
        </mxCell>
        <mxCell id="bLykYddRoZcESHF39pVB-50" value="401 Unauthorized" style="html=1;verticalAlign=bottom;endArrow=open;dashed=1;endSize=8;edgeStyle=elbowEdgeStyle;elbow=vertical;curved=0;rounded=0;" edge="1" parent="bLykYddRoZcESHF39pVB-61">
          <mxGeometry relative="1" as="geometry">
            <mxPoint x="65" y="325" as="targetPoint" />
            <Array as="points">
              <mxPoint x="160" y="325" />
            </Array>
            <mxPoint x="235" y="325" as="sourcePoint" />
          </mxGeometry>
        </mxCell>
        <mxCell id="bLykYddRoZcESHF39pVB-51" value="" style="html=1;points=[];perimeter=orthogonalPerimeter;outlineConnect=0;targetShapes=umlLifeline;portConstraint=eastwest;newEdgeStyle={&quot;edgeStyle&quot;:&quot;elbowEdgeStyle&quot;,&quot;elbow&quot;:&quot;vertical&quot;,&quot;curved&quot;:0,&quot;rounded&quot;:0};" vertex="1" parent="bLykYddRoZcESHF39pVB-61">
          <mxGeometry x="55" y="295" width="10" height="80" as="geometry" />
        </mxCell>
        <mxCell id="bLykYddRoZcESHF39pVB-52" value="" style="html=1;points=[];perimeter=orthogonalPerimeter;outlineConnect=0;targetShapes=umlLifeline;portConstraint=eastwest;newEdgeStyle={&quot;edgeStyle&quot;:&quot;elbowEdgeStyle&quot;,&quot;elbow&quot;:&quot;vertical&quot;,&quot;curved&quot;:0,&quot;rounded&quot;:0};" vertex="1" parent="bLykYddRoZcESHF39pVB-61">
          <mxGeometry x="235" y="295" width="10" height="80" as="geometry" />
        </mxCell>
        <mxCell id="bLykYddRoZcESHF39pVB-53" value="POST /provide (MMSB4)" style="html=1;verticalAlign=bottom;endArrow=block;edgeStyle=elbowEdgeStyle;elbow=horizontal;curved=0;rounded=0;" edge="1" parent="bLykYddRoZcESHF39pVB-61">
          <mxGeometry relative="1" as="geometry">
            <mxPoint x="65" y="305" as="sourcePoint" />
            <Array as="points">
              <mxPoint x="150" y="305" />
            </Array>
            <mxPoint x="235" y="305" as="targetPoint" />
          </mxGeometry>
        </mxCell>
        <mxCell id="bLykYddRoZcESHF39pVB-48" value="With server privilege (else 401)" style="swimlane;horizontal=0;whiteSpace=wrap;html=1;" vertex="1" parent="bLykYddRoZcESHF39pVB-61">
          <mxGeometry x="10" y="285" width="280" height="245" as="geometry" />
        </mxCell>
        <mxCell id="bLykYddRoZcESHF39pVB-18" value="" style="html=1;points=[];perimeter=orthogonalPerimeter;outlineConnect=0;targetShapes=umlLifeline;portConstraint=eastwest;newEdgeStyle={&quot;edgeStyle&quot;:&quot;elbowEdgeStyle&quot;,&quot;elbow&quot;:&quot;vertical&quot;,&quot;curved&quot;:0,&quot;rounded&quot;:0};" vertex="1" parent="bLykYddRoZcESHF39pVB-48">
          <mxGeometry x="45" y="170" width="10" height="60" as="geometry" />
        </mxCell>
        <mxCell id="bLykYddRoZcESHF39pVB-65" value="DELETE /provide (MMSB6)" style="html=1;verticalAlign=bottom;endArrow=block;edgeStyle=elbowEdgeStyle;elbow=horizontal;curved=0;rounded=0;" edge="1" parent="bLykYddRoZcESHF39pVB-48">
          <mxGeometry relative="1" as="geometry">
            <mxPoint x="55" y="180" as="sourcePoint" />
            <Array as="points">
              <mxPoint x="140" y="180" />
            </Array>
            <mxPoint x="225" y="180" as="targetPoint" />
          </mxGeometry>
        </mxCell>
        <mxCell id="bLykYddRoZcESHF39pVB-21" value="" style="html=1;points=[];perimeter=orthogonalPerimeter;outlineConnect=0;targetShapes=umlLifeline;portConstraint=eastwest;newEdgeStyle={&quot;edgeStyle&quot;:&quot;elbowEdgeStyle&quot;,&quot;elbow&quot;:&quot;vertical&quot;,&quot;curved&quot;:0,&quot;rounded&quot;:0};" vertex="1" parent="bLykYddRoZcESHF39pVB-48">
          <mxGeometry x="225" y="170" width="10" height="60" as="geometry" />
        </mxCell>
        <mxCell id="bLykYddRoZcESHF39pVB-67" value="200 OK" style="html=1;verticalAlign=bottom;endArrow=open;dashed=1;endSize=8;edgeStyle=elbowEdgeStyle;elbow=vertical;curved=0;rounded=0;" edge="1" parent="bLykYddRoZcESHF39pVB-48">
          <mxGeometry relative="1" as="geometry">
            <mxPoint x="55" y="220.00000000000006" as="targetPoint" />
            <Array as="points">
              <mxPoint x="150" y="220.00000000000006" />
            </Array>
            <mxPoint x="225" y="220.00000000000006" as="sourcePoint" />
          </mxGeometry>
        </mxCell>
        <mxCell id="bLykYddRoZcESHF39pVB-68" value="403 Forbidden" style="html=1;verticalAlign=bottom;endArrow=open;dashed=1;endSize=8;edgeStyle=elbowEdgeStyle;elbow=vertical;curved=0;rounded=0;" edge="1" parent="bLykYddRoZcESHF39pVB-48">
          <mxGeometry relative="1" as="geometry">
            <mxPoint x="55" y="199.71000000000004" as="targetPoint" />
            <Array as="points">
              <mxPoint x="150" y="199.71000000000004" />
            </Array>
            <mxPoint x="225" y="199.71000000000004" as="sourcePoint" />
          </mxGeometry>
        </mxCell>
        <mxCell id="bLykYddRoZcESHF39pVB-66" value="&lt;div&gt;&lt;font style=&quot;font-size: 10px;&quot;&gt;Payload may contain specific&lt;/font&gt;&lt;/div&gt;&lt;div&gt;&lt;font style=&quot;font-size: 10px;&quot;&gt;ms-addresses&lt;/font&gt;&lt;/div&gt;" style="text;html=1;align=center;verticalAlign=middle;whiteSpace=wrap;rounded=0;fontSize=10;rotation=-90;" vertex="1" parent="bLykYddRoZcESHF39pVB-48">
          <mxGeometry x="210" y="180" width="100" height="40" as="geometry" />
        </mxCell>
        <mxCell id="bLykYddRoZcESHF39pVB-83" value="" style="html=1;points=[];perimeter=orthogonalPerimeter;outlineConnect=0;targetShapes=umlLifeline;portConstraint=eastwest;newEdgeStyle={&quot;edgeStyle&quot;:&quot;elbowEdgeStyle&quot;,&quot;elbow&quot;:&quot;vertical&quot;,&quot;curved&quot;:0,&quot;rounded&quot;:0};" vertex="1" parent="bLykYddRoZcESHF39pVB-48">
          <mxGeometry x="45" y="110" width="10" height="40" as="geometry" />
        </mxCell>
        <mxCell id="bLykYddRoZcESHF39pVB-84" value="" style="html=1;points=[];perimeter=orthogonalPerimeter;outlineConnect=0;targetShapes=umlLifeline;portConstraint=eastwest;newEdgeStyle={&quot;edgeStyle&quot;:&quot;elbowEdgeStyle&quot;,&quot;elbow&quot;:&quot;vertical&quot;,&quot;curved&quot;:0,&quot;rounded&quot;:0};" vertex="1" parent="bLykYddRoZcESHF39pVB-48">
          <mxGeometry x="225" y="110" width="10" height="40" as="geometry" />
        </mxCell>
        <mxCell id="bLykYddRoZcESHF39pVB-85" value="GET /provide (MMSB5)" style="html=1;verticalAlign=bottom;endArrow=block;edgeStyle=elbowEdgeStyle;elbow=horizontal;curved=0;rounded=0;" edge="1" parent="bLykYddRoZcESHF39pVB-48">
          <mxGeometry relative="1" as="geometry">
            <mxPoint x="55" y="120" as="sourcePoint" />
            <Array as="points">
              <mxPoint x="140" y="120" />
            </Array>
            <mxPoint x="225" y="120" as="targetPoint" />
          </mxGeometry>
        </mxCell>
        <mxCell id="bLykYddRoZcESHF39pVB-87" value="&lt;div&gt;200 OK&lt;br&gt;&lt;/div&gt;" style="html=1;verticalAlign=bottom;endArrow=open;dashed=1;endSize=8;edgeStyle=elbowEdgeStyle;elbow=vertical;curved=0;rounded=0;" edge="1" parent="bLykYddRoZcESHF39pVB-48">
          <mxGeometry relative="1" as="geometry">
            <mxPoint x="55" y="140" as="targetPoint" />
            <Array as="points">
              <mxPoint x="150" y="140" />
            </Array>
            <mxPoint x="225" y="140" as="sourcePoint" />
          </mxGeometry>
        </mxCell>
        <mxCell id="bLykYddRoZcESHF39pVB-63" value="409 Conflict" style="html=1;verticalAlign=bottom;endArrow=open;dashed=1;endSize=8;edgeStyle=elbowEdgeStyle;elbow=vertical;curved=0;rounded=0;" edge="1" parent="bLykYddRoZcESHF39pVB-61">
          <mxGeometry relative="1" as="geometry">
            <mxPoint x="65" y="344.16999999999996" as="targetPoint" />
            <Array as="points">
              <mxPoint x="160" y="344.16999999999996" />
            </Array>
            <mxPoint x="235" y="344.16999999999996" as="sourcePoint" />
          </mxGeometry>
        </mxCell>
        <mxCell id="bLykYddRoZcESHF39pVB-54" value="&lt;div&gt;201 Created&lt;br&gt;&lt;/div&gt;" style="html=1;verticalAlign=bottom;endArrow=open;dashed=1;endSize=8;edgeStyle=elbowEdgeStyle;elbow=vertical;curved=0;rounded=0;" edge="1" parent="bLykYddRoZcESHF39pVB-61">
          <mxGeometry relative="1" as="geometry">
            <mxPoint x="65" y="365" as="targetPoint" />
            <Array as="points">
              <mxPoint x="160" y="365" />
            </Array>
            <mxPoint x="235" y="365" as="sourcePoint" />
          </mxGeometry>
        </mxCell>
        <mxCell id="bLykYddRoZcESHF39pVB-64" value="&lt;font style=&quot;font-size: 10px;&quot;&gt;Payload must contain ms-address&lt;br style=&quot;font-size: 10px;&quot;&gt;&lt;/font&gt;" style="text;html=1;align=center;verticalAlign=middle;whiteSpace=wrap;rounded=0;fontSize=10;rotation=-90;" vertex="1" parent="bLykYddRoZcESHF39pVB-61">
          <mxGeometry x="220" y="315" width="100" height="40" as="geometry" />
        </mxCell>
      </root>
    </mxGraphModel>
  </diagram>
  <diagram id="UisZDaFLGCN7zfK6DnZr" name="Seite-2">
    <mxGraphModel dx="1434" dy="782" grid="1" gridSize="10" guides="1" tooltips="1" connect="1" arrows="1" fold="1" page="1" pageScale="1" pageWidth="827" pageHeight="1169" math="0" shadow="0">
      <root>
        <mxCell id="0" />
        <mxCell id="1" parent="0" />
      </root>
    </mxGraphModel>
  </diagram>
</mxfile>
